<mxfile host="app.diagrams.net" modified="2024-04-29T11:08:20.900Z" agent="Mozilla/5.0 (Macintosh; Intel Mac OS X 10_15_7) AppleWebKit/537.36 (KHTML, like Gecko) Chrome/124.0.0.0 Safari/537.36" version="24.2.2" etag="b4DOtEKNiMxeXLTqHkmf" type="github">
  <diagram name="Page-1" id="L0_-3RabpdRRKp3IyW7I">
    <mxGraphModel>
      <root>
        <mxCell id="0" />
        <mxCell id="1" parent="0" />
      </root>
    </mxGraphModel>
  </diagram>
</mxfile>
